HIERARCHY
ROOT Hips
{
    OFFSET 0.000000 0.000000 0.000000
    CHANNELS 6 Xposition Yposition Zposition Zrotation Xrotation Yrotation
    JOINT Spine
    {
        OFFSET -0.000000 8.079700 0.000000
        CHANNELS 3 Zrotation Xrotation Yrotation
        JOINT Spine1
        {
            OFFSET -0.000000 23.289207 0.000000
            CHANNELS 3 Zrotation Xrotation Yrotation
            JOINT Neck
            {
                OFFSET -0.000000 23.193563 2.108506
                CHANNELS 3 Zrotation Xrotation Yrotation
                JOINT Head
                {
                    OFFSET -0.000000 13.794610 -1.970658
                    CHANNELS 3 Zrotation Xrotation Yrotation
                    End Site
                    {
                        OFFSET -0.000000 24.633232 0.000000
                    }
                }
            }
            JOINT LeftShoulder
            {
                OFFSET 3.964071 21.437269 -0.109506
                CHANNELS 3 Zrotation Xrotation Yrotation
                JOINT LeftArm
                {
                    OFFSET 10.889085 0.000000 0.000000
                    CHANNELS 3 Zrotation Xrotation Yrotation
                    JOINT LeftForeArm
                    {
                        OFFSET 33.323662 0.000000 0.000000
                        CHANNELS 3 Zrotation Xrotation Yrotation
                        JOINT LeftHand
                        {
                            OFFSET 25.127829 0.000000 0.000000
                            CHANNELS 3 Zrotation Xrotation Yrotation
                            End Site
                            {
                                OFFSET 14.779941 0.000000 0.000000
                            }
                        }
                    }
                }
            }
            JOINT RightShoulder
            {
                OFFSET -3.907116 21.437269 -0.109506
                CHANNELS 3 Zrotation Xrotation Yrotation
                JOINT RightArm
                {
                    OFFSET -10.889085 0.000000 0.000000
                    CHANNELS 3 Zrotation Xrotation Yrotation
                    JOINT RightForeArm
                    {
                        OFFSET -33.323662 0.000000 0.000000
                        CHANNELS 3 Zrotation Xrotation Yrotation
                        JOINT RightHand
                        {
                            OFFSET -25.127829 0.000000 0.000000
                            CHANNELS 3 Zrotation Xrotation Yrotation
                            End Site
                            {
                                OFFSET -14.779941 0.000000 0.000000
                            }
                        }
                    }
                }
            }
        }
    }
    JOINT LeftUpLeg
    {
        OFFSET 9.853293 0.000000 0.000000
        CHANNELS 3 Zrotation Xrotation Yrotation
        JOINT LeftLeg
        {
            OFFSET -0.000000 -42.191887 0.000000
            CHANNELS 3 Zrotation Xrotation Yrotation
            JOINT LeftFoot
            {
                OFFSET -0.000000 -39.359688 0.000000
                CHANNELS 3 Zrotation Xrotation Yrotation
                JOINT LeftToeBase
                {
                    OFFSET -0.000000 -6.404640 14.779941
                    CHANNELS 3 Zrotation Xrotation Yrotation
                    End Site
                    {
                        OFFSET -0.000000 0.000000 3.941317
                    }
                }
            }
        }
    }
    JOINT RightUpLeg
    {
        OFFSET -9.853293 0.000000 0.000000
        CHANNELS 3 Zrotation Xrotation Yrotation
        JOINT RightLeg
        {
            OFFSET -0.000000 -42.191887 0.000000
            CHANNELS 3 Zrotation Xrotation Yrotation
            JOINT RightFoot
            {
                OFFSET -0.000000 -39.359688 0.000000
                CHANNELS 3 Zrotation Xrotation Yrotation
                JOINT RightToeBase
                {
                    OFFSET -0.000000 -6.404640 14.779941
                    CHANNELS 3 Zrotation Xrotation Yrotation
                    End Site
                    {
                        OFFSET -0.000000 0.000000 3.941317
                    }
                }
            }
        }
    }
}
MOTION
Frames:    10
Frame Time:    0.008333
-0.928969    91.285683    211.682983    3.299400    -0.907015    175.310394    0.400620    -3.022381    0.405849    3.026982    1.473022    0.356473    5.315279    18.279202    4.734711    -6.073931    -8.465344    3.726322    15.074539    3.631675    6.073051    -19.629568    -2.627819    -0.293270    4.647925    -3.853762    -3.546999    18.561052    -4.257019    -3.354177    -11.867545    2.858989    1.498502    17.162174    0.967851    1.402068    -2.430911    -0.308214    -1.763371    -19.805820    -2.431001    11.903772    3.503569    7.806960    15.346662    -2.342252    -9.557182    21.664171    2.709976    -0.858262    1.420408    0.000000    0.000000    0.000000    -3.060129    2.971824    -1.067262    5.040326    2.700697    -5.307445    -7.875738    -4.267000    -9.724840    0.000000    0.000000    0.000000    
-0.935229    91.286919    211.659668    3.289126    -0.886992    175.334808    0.396177    -3.003273    0.398294    3.029285    1.474741    0.348973    4.340490    18.651804    4.768441    -4.431747    -9.038216    4.088948    15.086174    3.616567    6.091505    -19.641167    -2.635509    -0.298870    4.646569    -3.794972    -3.548790    18.424313    -4.201481    -3.399622    -11.891036    2.853135    1.505765    17.192665    1.014638    1.369335    -2.439815    -0.351948    -1.782979    -19.618378    -2.461536    11.940392    3.490164    7.837405    15.320101    -2.346301    -9.558897    21.672026    2.257338    -0.712652    1.521614    0.000000    0.000000    0.000000    -3.078709    2.992521    -1.099889    5.041925    2.737667    -5.261146    -7.856278    -4.284105    -9.759674    0.000000    0.000000    0.000000    
-0.940273    91.286301    211.638763    3.292776    -0.885559    175.343643    0.400836    -3.020102    0.403985    3.035746    1.510161    0.353456    4.637375    18.456760    4.735744    -4.926131    -8.806582    3.954279    15.138989    3.665869    6.003304    -19.723961    -2.746560    -0.199032    4.664729    -3.756898    -3.613998    18.397301    -4.160110    -3.404085    -11.907931    2.834406    1.508080    17.223118    0.960622    1.330575    -2.439575    -0.332907    -1.808122    -19.494781    -2.437065    11.983406    3.494360    7.850312    15.318867    -2.354696    -9.558050    21.699120    2.265755    -0.714631    1.486457    0.000000    0.000000    0.000000    -3.079782    2.995367    -1.125363    5.046980    2.767287    -5.231225    -7.843920    -4.297488    -9.775739    0.000000    0.000000    0.000000    
-0.943207    91.285172    211.613434    3.297602    -0.869872    175.356705    0.406426    -3.012040    0.405096    3.042898    1.521427    0.354109    4.295914    18.612143    4.740247    -4.375239    -9.024266    4.069855    15.143122    3.652899    5.996157    -19.742292    -2.759789    -0.180875    4.665480    -3.735860    -3.637670    18.373562    -4.135185    -3.390374    -11.917430    2.833205    1.501247    17.245552    0.870309    1.314342    -2.433261    -0.308987    -1.844429    -19.380753    -2.413782    12.054488    3.496164    7.886188    15.288076    -2.352102    -9.564344    21.717369    2.261490    -0.726033    1.472217    0.000000    0.000000    0.000000    -3.077233    3.017640    -1.150676    5.035334    2.805351    -5.168038    -7.874571    -4.317712    -9.818396    0.000000    0.000000    0.000000    
-0.950751    91.284569    211.585876    3.290582    -0.855686    175.357941    0.418488    -3.005780    0.400522    3.027978    1.526078    0.349201    4.261092    18.617863    4.752533    -4.342112    -9.029713    4.089135    15.139536    3.639002    6.033245    -19.742502    -2.778081    -0.187313    4.651730    -3.716789    -3.639876    18.364391    -4.117662    -3.399644    -11.917249    2.820412    1.498895    17.264811    0.819721    1.317372    -2.430298    -0.266915    -1.886816    -19.215691    -2.370178    12.145560    3.485896    7.918428    15.302166    -2.366714    -9.568430    21.747150    2.284734    -0.733147    1.428201    0.000000    0.000000    0.000000    -3.095155    3.041814    -1.119133    5.042460    2.820149    -5.160924    -7.864202    -4.337692    -9.857806    0.000000    0.000000    0.000000    
-0.952637    91.282463    211.557678    3.297833    -0.841518    175.352844    0.437187    -2.991520    0.397553    3.025071    1.513363    0.346355    4.271155    18.635921    4.743349    -4.396625    -9.022245    4.068888    15.116665    3.673248    6.076968    -19.740301    -2.844920    -0.212209    4.647097    -3.689293    -3.645794    18.361908    -4.089739    -3.397940    -11.920948    2.813118    1.502397    17.284136    0.732082    1.313868    -2.378409    -0.242337    -1.894575    -19.340683    -2.354472    12.121472    3.491314    7.964130    15.254927    -2.368515    -9.591717    21.810904    2.279776    -0.744755    1.425364    0.000000    0.000000    0.000000    -3.094729    3.065205    -1.136322    5.049636    2.836691    -5.157905    -7.886978    -4.359357    -9.843307    0.000000    0.000000    0.000000    
-0.954589    91.280220    211.527252    3.305274    -0.831243    175.339951    0.462580    -2.981281    0.389720    3.021880    1.501125    0.338085    4.190266    18.636036    4.761389    -4.326139    -8.991906    4.102409    15.084384    3.619987    6.101177    -19.723871    -2.774544    -0.159828    4.645656    -3.702535    -3.655560    18.377371    -4.101183    -3.386117    -11.921839    2.806787    1.516134    17.295090    0.684929    1.317115    -2.312869    -0.265808    -1.870151    -19.539566    -2.379790    12.015576    3.500960    7.999956    15.289310    -2.395736    -9.591475    21.751081    2.303927    -0.764266    1.462629    0.000000    0.000000    0.000000    -3.087494    3.076061    -1.132956    5.038738    2.875394    -5.112105    -7.872444    -4.385197    -9.885725    0.000000    0.000000    0.000000    
-0.956104    91.279465    211.498383    3.315264    -0.822563    175.332413    0.497361    -2.981196    0.382640    3.002565    1.508663    0.330212    4.205541    18.623867    4.774917    -4.397072    -8.957444    4.102116    15.029419    3.551905    6.227909    -19.662634    -2.677371    -0.238600    4.618584    -3.708829    -3.639623    18.395109    -4.105317    -3.360182    -11.927676    2.793718    1.518267    17.323771    0.645050    1.333775    -2.264229    -0.298212    -1.867460    -19.693911    -2.415625    11.945456    3.516396    8.036108    15.281798    -2.413456    -9.593767    21.768637    2.301387    -0.788709    1.436201    0.000000    0.000000    0.000000    -3.083338    3.062717    -0.984379    5.041240    2.850085    -6.158962    -7.789779    -4.425913    -8.948256    0.000000    0.000000    0.000000    
-0.960339    91.278946    211.472015    3.317140    -0.823785    175.326706    0.526871    -2.978596    0.372246    2.981292    1.495340    0.319588    4.140193    18.624924    4.779741    -4.342066    -8.934385    4.118588    15.019952    3.538081    6.264373    -19.675419    -2.645920    -0.228992    4.624346    -3.717180    -3.616863    18.397856    -4.118092    -3.382463    -11.924066    2.790452    1.521673    17.347832    0.624230    1.351544    -2.229855    -0.358531    -1.881141    -19.827063    -2.492633    11.959853    3.516130    8.051643    15.285128    -2.418155    -9.593515    21.774210    2.725501    -0.922733    1.347493    0.000000    0.000000    0.000000    -3.084297    3.066612    -1.005839    5.039825    2.876579    -6.111313    -7.788521    -4.441993    -8.989996    0.000000    0.000000    0.000000    
-0.959256    91.276901    211.442947    3.330815    -0.821051    175.316284    0.562281    -2.991354    0.357893    2.974736    1.525291    0.303627    4.416063    18.496580    4.809691    -4.878562    -8.778865    4.039848    15.009636    3.515065    6.334590    -19.698029    -2.566174    -0.226966    4.633182    -3.735646    -3.622418    18.379526    -4.130092    -3.349049    -11.967099    2.768985    1.514091    17.410263    0.630202    1.390755    -2.226102    -0.343857    -1.886354    -19.778439    -2.477901    11.989510    3.537069    8.075914    15.299606    -2.436146    -9.589299    21.781183    2.715951    -0.967336    1.328355    0.000000    0.000000    0.000000    -3.075354    3.079268    -0.939726    5.059023    2.882448    -6.156820    -7.824145    -4.439803    -9.014208    0.000000    0.000000    0.000000    
